# xmcd CD database file
#
# Track frame offsets:
#	150
#	23117
#	46187
#
# Disc length: 921 seconds
#
# Revision: 0
# Processed by: cddbd v1.5.1PL2 Copyright (c) Steve Scherf et al.
# Submitted via: CDex 1.51
#
DISCID=19039703
DTITLE=Ring - One,Two Step
DYEAR=1988
DGENRE=JPop
TTITLE0=One,Two Step - Japanese Version
TTITLE1=One,Two Step - Mandarin Version
TTITLE2=One,Two Step - Instrumental
EXTD=YEAR: 1988
EXTT0=
EXTT1=
EXTT2=
PLAYORDER=
